<?xml version="1.0" encoding="UTF-8"?>
<!DOCTYPE svg PUBLIC "-//W3C//DTD SVG 1.1//EN"
    "http://www.w3.org/Graphics/SVG/1.1/DTD/svg11.dtd">
<svg xmlns="http://www.w3.org/2000/svg" xmlns:xlink="http://www.w3.org/1999/xlink" version="1.1" width="1246.3359639233372" height="600.0" font-size="1" viewBox="0 0 1246 600" stroke="rgb(0,0,0)" stroke-opacity="1"><g><g fill="rgb(0,0,0)" fill-opacity="0.0"><g stroke="rgb(0,0,0)" stroke-opacity="1.0" fill="rgb(0,0,0)" fill-opacity="1.0" stroke-width="3.4590208518689285" stroke-linecap="butt" stroke-linejoin="miter" fill-rule="evenodd" font-size="1.0em" stroke-miterlimit="10.0"><g fill="rgb(0,0,0)" fill-opacity="1.0"><g fill="rgb(0,0,0)" fill-opacity="1.0"><path d="M -2.3675310033822825,441.71364148816235 ZM 116.00901916572718,217.81285231116124 c -7.8466741826381075,9.67305524239008 -10.822998872604286,15.558060879368659 -10.822998872604286 29.76324689966178v 123.11161217587373 c 0.0,24.419391206313417 2.638099210822999,28.34272829763247 16.234498308906428 40.518602029312284c 12.17587373167982,10.890642615558061 35.851183765501695,14.2728297632469 48.02705749718152 14.2728297632469c 75.76099210823,0.0 95.37767756482526,-68.99661781285232 95.37767756482526 -124.46448703494927c 0.0,-76.43742953776776 -37.20405862457723,-125.14092446448703 -80.49605411499438 -125.14092446448703c -19.75197294250282,0.0 -50.73280721533259,20.29312288613303 -68.32018038331455 41.9391206313416ZM 116.00901916572718,217.81285231116124 ZM 103.15670800450948,192.7846674182638 c 0.33821871476888393,6.493806087936866 3.652755355129651,6.967305524239008 7.440811724915447 2.705749718151071c 26.71927846674183,-30.10146561443067 61.21758737316799,-50.73280721533258 92.6719278466742 -50.73280721533258c 68.99661781285232,0.0 119.7294250281849,66.29086809470124 119.7294250281849 137.99323562570464c 0.0,54.79143179255919 -18.263810597519733,96.73055242390079 -50.05636978579482 127.8466741826381c -27.733934611048483,26.381059751972945 -61.55580608793688,37.88049605411499 -99.43630214205189 37.88049605411499c -21.375422773393463,0.0 -42.277339346110494,-3.7880496054114996 -58.850056369785804 -10.4847801578354c -6.899661781285231,-2.8410372040586247 -9.47012401352875,-3.7204058624577225 -9.47012401352875 5.073280721533258v 73.05524239007892 c 0.0,56.14430665163473 7.440811724915447,58.85005636978579 55.467869222096965 61.555806087936865c 4.058624577226607,4.058624577226607 4.058624577226607,18.26381059751973 0.0 22.322435174746335c -22.32243517474634,-0.6764374295377678 -54.791431792559194,-1.3528748590755355 -81.8489289740699 -1.3528748590755355c -27.057497181510715,0.0 -52.08568207440812,0.6764374295377678 -75.76099210823 1.3528748590755355c -4.058624577226607,-4.058624577226607 -4.058624577226607,-18.26381059751973 0.0 -22.322435174746335c 41.26268320180384,-2.0293122886133035 48.70349492671928,-5.411499436302142 48.70349492671928 -61.555806087936865v -288.8387824126268 c 0.0,-39.233370913190534 -7.440811724915447,-42.61555806087937 -43.96843291995491 -45.99774520856821c -1.3528748590755357,-4.058624577226607 -2.7057497181510715,-14.88162344983089 -1.3528748590755357 -18.940248027057496c 46.67418263810598,-6.08793686583991 64.26155580608796,-12.17587373167982 83.20180383314543 -19.616685456595267c 5.411499436302143,0.0 6.696723788049606,2.299880496054115 8.117249154453214 5.411499436302142c 3.179255918827509,6.967305524239008 4.396843291995491,24.35174746335964 5.411499436302143 44.64487034949267ZM 517.8128523111611,441.71364148816235 ZM 565.163472378805,201.57835400225483 c 0.0,-19.616685456595267 16.234498308906428,-35.851183765501695 35.851183765501695 -35.851183765501695c 19.616685456595267,0.0 35.851183765501695,16.234498308906428 35.851183765501695 35.851183765501695c 0.0,19.616685456595267 -16.234498308906428,35.851183765501695 -35.851183765501695 35.851183765501695c -19.616685456595267,0.0 -35.851183765501695,-16.234498308906428 -35.851183765501695 -35.851183765501695ZM 565.163472378805,201.57835400225483 ZM 565.163472378805,393.0101465614431 c 0.0,-19.616685456595267 16.234498308906428,-35.851183765501695 35.851183765501695 -35.851183765501695c 19.616685456595267,0.0 35.851183765501695,16.234498308906428 35.851183765501695 35.851183765501695c 0.0,19.616685456595267 -16.234498308906428,35.851183765501695 -35.851183765501695 35.851183765501695c -19.616685456595267,0.0 -35.851183765501695,-16.234498308906428 -35.851183765501695 -35.851183765501695ZM 846.5614430665164,441.71364148816235 ZM 1083.314543404735,359.1882750845547 c 0.0,56.14430665163473 11.499436302142055,59.52649379932356 65.61443066516348 61.555806087936865c 4.058624577226607,4.058624577226607 4.058624577226607,18.26381059751973 0.0 22.322435174746335c -33.82187147688839,-0.6764374295377678 -68.04960541149944,-1.3528748590755355 -94.02480270574974 -1.3528748590755355c -27.125140924464493,0.0 -61.55580608793688,0.6764374295377678 -94.7012401352875 1.3528748590755355c -4.058624577226607,-4.058624577226607 -4.058624577226607,-18.26381059751973 0.0 -22.322435174746335c 54.11499436302143,-2.0293122886133035 65.61443066516348,-5.411499436302142 65.61443066516348 -61.555806087936865v -260.4284103720406 c 0.0,-41.26268320180383 -6.764374295377679,-66.96730552423901 -31.79255918827509 -66.96730552423901h -33.145434047350626 c -44.64487034949268,0.0 -75.76099210823,17.587373167981962 -89.28974069898536 71.70236753100339c -8.117249154453214,0.0 -16.234498308906428,-0.6764374295377678 -22.99887260428411 -3.3821871476888385c 7.440811724915447,-32.468996617812856 14.205186020293125,-67.64374295377677 16.910935738444195 -98.08342728297633c 0.0,-0.6764374295377678 1.3528748590755357,-2.0293122886133035 2.7057497181510715 -2.0293122886133035c 25.704622322435178,2.0293122886133035 105.5242390078918,5.411499436302142 157.6099210822999 5.411499436302142h 58.17361894024803 c 53.43855693348366,0.0 128.5231116121759,-3.3821871476888385 151.52198421646 -5.411499436302142c 0.6764374295377679,0.0 2.0293122886133035,1.3528748590755355 2.0293122886133035 2.0293122886133035c 0.6764374295377679,30.439684329199547 4.058624577226607,64.93799323562571 8.793686583990983 96.05411499436302c -6.08793686583991,2.705749718151071 -15.558060879368659,3.3821871476888385 -22.99887260428411 3.3821871476888385c -11.499436302142055,-52.08568207440811 -43.29199549041714,-69.67305524239008 -94.02480270574974 -69.67305524239008h -14.881623449830894 c -24.35174746335964,0.0 -31.116121758737318,25.704622322435174 -31.116121758737318 68.99661781285232v 258.39909808342725 Z" /></g></g></g></g></g></svg>